<?xml version="1.0" encoding="UTF-8" standalone="no"?>
<!-- Created with Inkscape (http://www.inkscape.org/) -->

<svg
   width="23.998755"
   height="23.999264"
   viewBox="0 0 23.998755 23.999264"
   version="1.1"
   id="svg1"
   xml:space="preserve"
   sodipodi:docname="AppIcon.svg"
   inkscape:export-filename="AppIcon.png"
   inkscape:export-xdpi="2048.1062"
   inkscape:export-ydpi="2048.1062"
   inkscape:version="1.4 (86a8ad7, 2024-10-11)"
   xmlns:inkscape="http://www.inkscape.org/namespaces/inkscape"
   xmlns:sodipodi="http://sodipodi.sourceforge.net/DTD/sodipodi-0.dtd"
   xmlns:xlink="http://www.w3.org/1999/xlink"
   xmlns="http://www.w3.org/2000/svg"
   xmlns:svg="http://www.w3.org/2000/svg"><sodipodi:namedview
     id="namedview1"
     pagecolor="#ffffff"
     bordercolor="#000000"
     borderopacity="0.25"
     inkscape:showpageshadow="2"
     inkscape:pageopacity="0.0"
     inkscape:pagecheckerboard="0"
     inkscape:deskcolor="#d1d1d1"
     inkscape:zoom="30.959283"
     inkscape:cx="11.999632"
     inkscape:cy="12.258036"
     inkscape:window-width="1920"
     inkscape:window-height="961"
     inkscape:window-x="-9"
     inkscape:window-y="-9"
     inkscape:window-maximized="1"
     inkscape:current-layer="svg1" /><defs
     id="defs1"><linearGradient
       id="linearGradient3"><stop
         style="stop-color:#0c1620;stop-opacity:1;"
         offset="0"
         id="stop3" /><stop
         style="stop-color:#0c1620;stop-opacity:0;"
         offset="1"
         id="stop4" /></linearGradient><linearGradient
       xlink:href="#linearGradient3"
       id="linearGradient4"
       x1="387.49451"
       y1="412.95035"
       x2="131.52187"
       y2="104.6518"
       gradientUnits="userSpaceOnUse"
       gradientTransform="matrix(0.99918677,0,0,1.4675867,-0.57017292,-102.7852)" /></defs><circle
     style="display:none;fill:#cccccc;stroke-width:2.40975"
     id="path2"
     cx="255.98672"
     cy="255.98473"
     r="256" /><g
     id="g8"
     transform="matrix(0.05271295,0,0,0.05271295,-1.4376739,-2.433079)"
     style="display:inline"><rect
       style="display:inline;fill:#3d4a5c;fill-opacity:1;stroke-width:1.41968"
       id="rect1"
       width="455.27246"
       height="455.2821"
       x="27.273638"
       y="46.157139"
       ry="77.129791" /><rect
       style="display:inline;opacity:1;fill:url(#linearGradient4);fill-opacity:1;stroke-width:1.41968"
       id="rect3"
       width="455.27246"
       height="455.2821"
       x="27.273638"
       y="46.157139"
       ry="77.129791" /></g><g
     id="g7"
     transform="matrix(0.11559352,0,0,0.11559352,-16.684925,-16.021789)"><path
       d="m 251.33908,161.56658 c -1.55965,-0.51993 -3.05428,-0.32499 -4.48381,0.58483 -1.42961,0.90983 -2.14446,2.27446 -2.14446,4.09392 v 96.30441 c -5.45857,-5.19868 -11.95672,-8.0578 -19.49482,-8.57772 -7.5381,-0.51992 -14.42618,1.42956 -20.66453,5.84845 -6.23834,4.41889 -10.33222,10.26733 -12.28171,17.54534 -1.94951,7.278 -1.29967,14.36124 1.94949,21.24936 3.24916,6.8881 8.25277,12.02186 15.011,15.4009 6.75831,3.37999 13.84129,4.15864 21.24934,2.33862 7.40806,-1.81812 13.38651,-5.84768 17.93525,-12.08602 4.54875,-6.23835 6.56335,-13.12645 6.04338,-20.66451 l 0.38993,-72.13084 56.92488,17.54533 c 1.55956,0.51992 2.98909,0.32498 4.28884,-0.58485 1.29976,-0.90982 1.9495,-2.27446 1.9495,-4.09391 v -24.56347 c 0,-5.19868 -1.55956,-9.94236 -4.67878,-14.23122 -3.11913,-4.28887 -7.27802,-7.21309 -12.47668,-8.77267 z"
       fill="#ffffff"
       fill-opacity="1"
       id="path1"
       style="display:inline;stroke-width:0.189707;stroke-dasharray:none" /></g></svg>
